<svg aria-hidden="true" style="position: absolute; width: 0; height: 0; overflow: hidden;" version="1.1" xmlns="http://www.w3.org/2000/svg" xmlns:xlink="http://www.w3.org/1999/xlink">
<defs>
<symbol id="icon-icon-1" viewBox="0 0 32 32">
<path fill="none" stroke="#9dff3a" style="stroke: var(--color1, #9dff3a)" stroke-linejoin="round" stroke-linecap="butt" stroke-miterlimit="4" stroke-width="1.6" d="M4.011 3.349c0.683-0.683 1.781-0.683 3.989-0.683 2.197 0 3.296 0 3.979 0.683s0.683 1.781 0.683 3.979c0 2.197 0 3.296-0.683 3.979-0.683 0.693-1.781 0.693-3.979 0.693-2.208 0-3.307 0-3.989-0.693-0.683-0.683-0.683-1.781-0.683-3.979s0-3.296 0.683-3.979zM8 18.667c0.907 0 1.643 0.725 3.115 2.208 1.483 1.472 2.219 2.208 2.219 3.125 0 0.907-0.736 1.643-2.219 3.115-1.472 1.483-2.208 2.219-3.115 2.219-0.917 0-1.653-0.736-3.125-2.219-1.483-1.461-2.208-2.208-2.208-3.115 0-0.917 0.725-1.653 2.208-3.125 1.472-1.483 2.208-2.208 3.125-2.208zM8 12v6.667M13.333 24h6.667M20.683 20.011c0.683-0.683 1.781-0.683 3.979-0.683s3.296 0 3.979 0.683c0.693 0.683 0.693 1.781 0.693 3.989 0 2.197 0 3.296-0.693 3.979-0.683 0.683-1.781 0.683-3.979 0.683s-3.296 0-3.979-0.683c-0.683-0.683-0.683-1.781-0.683-3.979 0-2.208 0-3.307 0.683-3.989z"></path>
</symbol>
<symbol id="icon-icon-2" viewBox="0 0 32 32">
<path fill="#9dff3a" style="fill: var(--color1, #9dff3a)" d="M16 29.333c-3.093-0.779-5.643-2.56-7.659-5.323-2.005-2.763-3.019-5.835-3.008-9.216v-8.128l10.667-4 10.667 4v8.128c0 3.381-1.013 6.453-3.019 9.216-2.016 2.773-4.565 4.544-7.648 5.323zM16 26.528c2.155-0.661 3.947-1.984 5.397-3.947 1.44-1.973 2.283-4.16 2.528-6.581h-7.925v-10.507l-8 2.997v6.901c0 0.16 0.021 0.363 0.064 0.608h7.936v10.528z"></path>
</symbol>
<symbol id="icon-icon-3" viewBox="0 0 32 32">
<path fill="none" stroke="#9dff3a" style="stroke: var(--color1, #9dff3a)" stroke-linejoin="round" stroke-linecap="round" stroke-miterlimit="4" stroke-width="2" d="M17.227 28.875l4.875-2.421c2.155-1.067 3.232-1.611 3.232-2.453v-10.667c0-0.853-1.077-1.387-3.232-2.464l-4.875-2.421c-0.608-0.299-0.907-0.448-1.227-0.448-0.331 0-0.629 0.149-1.237 0.448l-4.875 2.421c-2.155 1.077-3.221 1.611-3.221 2.464v10.667c0 0.843 1.067 1.387 3.221 2.453l4.875 2.421c0.608 0.299 0.907 0.459 1.237 0.459 0.32 0 0.619-0.16 1.227-0.459zM16 29.333v-10.667M25.333 13.333c0 0.843-1.077 1.376-3.232 2.453l-4.875 2.421c-0.608 0.299-0.907 0.459-1.227 0.459-0.331 0-0.629-0.16-1.237-0.459l-4.875-2.421c-2.155-1.077-3.221-1.611-3.221-2.453M29.333 28l-4-3.339M16 2.667v5.333M2.667 28l4-3.339"></path>
</symbol>
</defs>
</svg>
