<svg width="32.000000" height="31.999969" viewBox="0 0 32 32" fill="none" xmlns="http://www.w3.org/2000/svg" xmlns:xlink="http://www.w3.org/1999/xlink">
	<desc>
			Created with Pixso.
	</desc>
	<defs/>
	<path id="Vector" d="M16 32C24.83 32 32 24.83 32 16C32 7.16 24.83 0 16 0C7.16 0 0 7.16 0 16C0 24.83 7.16 32 16 32ZM20.99 7.45C21.23 6.59 20.39 6.08 19.63 6.62L8.95 14.23C8.12 14.82 8.25 16 9.15 16L11.96 16L11.96 15.97L17.44 15.97L12.97 17.55L11 24.54C10.76 25.4 11.6 25.91 12.36 25.37L23.04 17.76C23.87 17.17 23.74 16 22.84 16L18.58 16L20.99 7.45Z" fill="#9DFF3A" fill-opacity="1.000000" fill-rule="evenodd"/>
</svg>
