<svg aria-hidden="true" style="position: absolute; width: 0; height: 0; overflow: hidden;" version="1.1" xmlns="http://www.w3.org/2000/svg" xmlns:xlink="http://www.w3.org/1999/xlink">
<defs>
<symbol id="icon-partners-1" viewBox="0 0 32 32">
<path fill="#999" style="fill: var(--color1, #999)" d="M6.765 2.87c-1.127 0.8-2.152 1.753-3.044 2.819 3.628-0.348 8.251 0.215 13.612 2.921 5.72 2.89 10.332 2.983 13.54 2.357-0.297-0.881-0.656-1.742-1.097-2.552-3.669 0.389-8.374-0.133-13.858-2.901-3.485-1.763-6.56-2.481-9.153-2.644zM27.634 5.33c-2.901-3.28-7.114-5.33-11.808-5.33-1.373 0-2.706 0.174-3.987 0.502 1.732 0.482 3.567 1.179 5.494 2.152 4.018 2.030 7.482 2.675 10.301 2.675zM31.56 14.094c-3.875 0.779-9.225 0.615-15.642-2.624-6.006-3.034-10.773-2.993-14.002-2.265-0.164 0.031-0.328 0.072-0.482 0.113-0.42 0.933-0.758 1.906-0.994 2.911 0.256-0.072 0.523-0.133 0.789-0.195 3.915-0.882 9.43-0.841 16.103 2.532 5.996 3.024 10.773 2.993 13.991 2.265 0.113-0.020 0.215-0.051 0.328-0.072 0.010-0.256 0.010-0.512 0.010-0.769 0-0.636-0.031-1.271-0.102-1.896zM31.129 20.131c-3.834 0.677-9.030 0.42-15.211-2.706-6.007-3.034-10.773-2.993-14.002-2.265-0.707 0.154-1.353 0.348-1.917 0.564 0 0.092 0 0.174 0 0.267 0 8.846 7.083 16 15.826 16 7.329 0 13.499-5.023 15.303-11.859z"></path>
</symbol>
<symbol id="icon-partners-2" viewBox="0 0 33 32">
<path fill="#999" style="fill: var(--color1, #999)" d="M16.272 0c8.991 0 16.282 7.157 16.282 15.994s-7.291 16.004-16.282 16.004c-8.991 0-16.272-7.168-16.272-16.004s7.281-15.994 16.272-15.994zM31.925 15.994c0-8.496-7.003-15.386-15.654-15.386-0.7 0-1.38 0.041-2.060 0.134 0.443-0.041 0.875-0.062 1.329-0.062 8.259 0 14.953 6.591 14.953 14.706s-6.694 14.706-14.953 14.706c-7.827 0-14.243-5.901-14.902-13.419 0.36 8.177 7.219 14.706 15.633 14.706 8.651 0 15.654-6.89 15.654-15.386zM29.866 15.386c0-7.775-6.416-14.088-14.325-14.088-0.649 0-1.277 0.041-1.905 0.124 0.391-0.031 0.772-0.052 1.164-0.052 7.528 0 13.635 6.004 13.635 13.409s-6.107 13.398-13.635 13.398c-7.127 0-12.966-5.366-13.584-12.204 0.309 7.508 6.601 13.501 14.325 13.501 7.909 0 14.325-6.303 14.325-14.088zM14.799 1.988c-0.608 0-1.195 0.041-1.782 0.113 0.34-0.021 0.69-0.041 1.040-0.041 6.807 0 12.317 5.427 12.317 12.111s-5.51 12.101-12.317 12.101c-6.426 0-11.699-4.83-12.265-11.009 0.268 6.838 5.983 12.307 13.007 12.307 7.188 0 13.007-5.726 13.007-12.791s-5.819-12.791-13.007-12.791zM25.757 14.171c0-6.354-5.242-11.493-11.699-11.493-0.546 0-1.081 0.031-1.607 0.103 0.288-0.021 0.577-0.031 0.875-0.031 6.066 0 10.989 4.84 10.989 10.813 0 5.963-4.923 10.803-10.989 10.803-5.716 0-10.412-4.284-10.947-9.763 0.227 6.138 5.376 11.061 11.678 11.061 6.457 0 11.699-5.149 11.699-11.493zM13.326 3.368c-0.505 0-0.989 0.031-1.473 0.103 0.247-0.021 0.484-0.031 0.731-0.031 5.345 0 9.681 4.253 9.681 9.505s-4.336 9.516-9.681 9.516c-5.015 0-9.145-3.759-9.629-8.568 0.185 5.468 4.758 9.856 10.371 9.856 5.726 0 10.371-4.562 10.371-10.185 0-5.633-4.645-10.195-10.371-10.195zM21.637 12.945c0-4.912-4.058-8.888-9.052-8.888-0.453 0-0.906 0.031-1.339 0.093 0.196-0.010 0.402-0.021 0.608-0.021 4.603 0 8.352 3.677 8.352 8.208 0 4.542-3.749 8.208-8.352 8.208-4.325 0-7.889-3.223-8.311-7.363 0.124 4.809 4.13 8.661 9.042 8.661 4.995 0 9.052-3.985 9.052-8.898zM11.854 4.748c-0.402 0-0.803 0.031-1.184 0.082 0.144-0.010 0.299-0.010 0.443-0.010 3.883 0 7.034 3.090 7.034 6.91s-3.151 6.91-7.034 6.91c-3.615 0-6.601-2.688-6.993-6.138 0.093 4.119 3.512 7.436 7.734 7.436 4.264 0 7.724-3.398 7.724-7.6 0-4.191-3.46-7.59-7.724-7.59zM17.518 11.73c0-3.481-2.863-6.292-6.406-6.292-0.36 0-0.7 0.021-1.040 0.082 0.093-0.010 0.196-0.010 0.299-0.010 3.162 0 5.716 2.513 5.716 5.613s-2.554 5.613-5.716 5.613c-2.914 0-5.324-2.152-5.664-4.923 0.041 3.44 2.894 6.22 6.406 6.22 3.543 0 6.406-2.822 6.406-6.303zM10.371 6.117c-0.309 0-0.608 0.031-0.896 0.082 0.052 0 0.103 0 0.165 0 2.42 0 4.387 1.926 4.387 4.315 0 2.379-1.967 4.315-4.387 4.315-2.224 0-4.058-1.627-4.356-3.728 0 0.010 0 0.010 0 0.021 0 2.76 2.276 4.995 5.087 4.995s5.087-2.235 5.087-4.995c0-2.76-2.276-5.005-5.087-5.005zM13.398 10.515c0-2.049-1.679-3.707-3.759-3.707s-3.769 1.658-3.769 3.707c0 2.039 1.689 3.697 3.769 3.697s3.759-1.658 3.759-3.697z"></path>
</symbol>
<symbol id="icon-partners-3" viewBox="0 0 32 32">
<path fill="#999" style="fill: var(--color1, #999)" d="M15.795 31.99c-8.733 0-15.795-7.154-15.795-16 0-8.835 7.062-15.99 15.795-15.99 8.723 0 15.795 7.154 15.795 15.99 0 8.846-7.072 16-15.795 16zM20.715 7.452c0.246-0.871-0.584-1.373-1.332-0.83l-10.547 7.606c-0.82 0.595-0.687 1.763 0.195 1.763h2.778v-0.021h5.412l-4.407 1.579-1.947 6.991c-0.246 0.861 0.584 1.373 1.343 0.83l10.537-7.605c0.82-0.595 0.697-1.773-0.195-1.773h-4.203l2.368-8.538z"></path>
</symbol>
<symbol id="icon-partners-4" viewBox="0 0 32 32">
<path fill="#999" style="fill: var(--color1, #999)" d="M15.908 31.99c8.795 0 15.918-7.154 15.918-16 0-8.835-7.124-15.99-15.918-15.99-8.784 0-15.908 7.154-15.908 15.99 0 8.846 7.124 16 15.908 16zM18.368 12.361c1.363-1.373 1.363-3.577 0-4.941-1.353-1.363-3.557-1.363-4.91 0-1.363 1.363-1.363 3.567 0 4.941l2.45 2.46 2.46-2.46zM19.537 18.46c1.353 1.363 3.557 1.363 4.91 0s1.353-3.567 0-4.93c-1.353-1.373-3.557-1.373-4.91 0l-2.46 2.46 2.46 2.47zM18.368 24.569c1.363-1.363 1.363-3.577 0-4.941l-2.46-2.47-2.45 2.47c-1.363 1.363-1.363 3.577 0 4.941 1.353 1.363 3.557 1.363 4.91 0zM7.38 18.46c-1.353-1.363-1.353-3.567 0-4.93 1.353-1.373 3.557-1.373 4.91 0l2.46 2.46-2.46 2.47c-1.353 1.363-3.557 1.363-4.91 0z"></path>
</symbol>
<symbol id="icon-partners-5" viewBox="0 0 33 32">
<path fill="#999" style="fill: var(--color1, #999)" d="M16.272 0c8.991 0 16.282 7.157 16.282 15.994s-7.291 16.004-16.282 16.004c-8.991 0-16.272-7.168-16.272-16.004s7.281-15.994 16.272-15.994zM31.925 15.994c0-8.496-7.003-15.386-15.654-15.386-0.7 0-1.38 0.041-2.060 0.134 0.443-0.041 0.875-0.062 1.329-0.062 8.259 0 14.953 6.591 14.953 14.706s-6.694 14.706-14.953 14.706c-7.827 0-14.243-5.901-14.902-13.419 0.36 8.177 7.219 14.706 15.633 14.706 8.651 0 15.654-6.89 15.654-15.386zM29.866 15.386c0-7.775-6.416-14.088-14.325-14.088-0.649 0-1.277 0.041-1.905 0.124 0.391-0.031 0.772-0.052 1.164-0.052 7.528 0 13.635 6.004 13.635 13.409s-6.107 13.398-13.635 13.398c-7.127 0-12.966-5.366-13.584-12.204 0.309 7.508 6.601 13.501 14.325 13.501 7.909 0 14.325-6.303 14.325-14.088zM14.799 1.988c-0.608 0-1.195 0.041-1.782 0.113 0.34-0.021 0.69-0.041 1.040-0.041 6.807 0 12.317 5.427 12.317 12.111s-5.51 12.101-12.317 12.101c-6.426 0-11.699-4.83-12.265-11.009 0.268 6.838 5.983 12.307 13.007 12.307 7.188 0 13.007-5.726 13.007-12.791s-5.819-12.791-13.007-12.791zM25.757 14.171c0-6.354-5.242-11.493-11.699-11.493-0.546 0-1.081 0.031-1.607 0.103 0.288-0.021 0.577-0.031 0.875-0.031 6.066 0 10.989 4.84 10.989 10.813 0 5.963-4.923 10.803-10.989 10.803-5.716 0-10.412-4.284-10.947-9.763 0.227 6.138 5.376 11.061 11.678 11.061 6.457 0 11.699-5.149 11.699-11.493zM13.326 3.368c-0.505 0-0.989 0.031-1.473 0.103 0.247-0.021 0.484-0.031 0.731-0.031 5.345 0 9.681 4.253 9.681 9.505s-4.336 9.516-9.681 9.516c-5.015 0-9.145-3.759-9.629-8.568 0.185 5.468 4.758 9.856 10.371 9.856 5.726 0 10.371-4.562 10.371-10.185 0-5.633-4.645-10.195-10.371-10.195zM21.637 12.945c0-4.912-4.058-8.888-9.052-8.888-0.453 0-0.906 0.031-1.339 0.093 0.196-0.010 0.402-0.021 0.608-0.021 4.603 0 8.352 3.677 8.352 8.208 0 4.542-3.749 8.208-8.352 8.208-4.325 0-7.889-3.223-8.311-7.363 0.124 4.809 4.13 8.661 9.042 8.661 4.995 0 9.052-3.985 9.052-8.898zM11.854 4.748c-0.402 0-0.803 0.031-1.184 0.082 0.144-0.010 0.299-0.010 0.443-0.010 3.883 0 7.034 3.090 7.034 6.91s-3.151 6.91-7.034 6.91c-3.615 0-6.601-2.688-6.993-6.138 0.093 4.119 3.512 7.436 7.734 7.436 4.264 0 7.724-3.398 7.724-7.6 0-4.191-3.46-7.59-7.724-7.59zM17.518 11.73c0-3.481-2.863-6.292-6.406-6.292-0.36 0-0.7 0.021-1.040 0.082 0.093-0.010 0.196-0.010 0.299-0.010 3.162 0 5.716 2.513 5.716 5.613s-2.554 5.613-5.716 5.613c-2.914 0-5.324-2.152-5.664-4.923 0.041 3.44 2.894 6.22 6.406 6.22 3.543 0 6.406-2.822 6.406-6.303zM10.371 6.117c-0.309 0-0.608 0.031-0.896 0.082 0.052 0 0.103 0 0.165 0 2.42 0 4.387 1.926 4.387 4.315 0 2.379-1.967 4.315-4.387 4.315-2.224 0-4.058-1.627-4.356-3.728 0 0.010 0 0.010 0 0.021 0 2.76 2.276 4.995 5.087 4.995s5.087-2.235 5.087-4.995c0-2.76-2.276-5.005-5.087-5.005zM13.398 10.515c0-2.049-1.679-3.707-3.759-3.707s-3.769 1.658-3.769 3.707c0 2.039 1.689 3.697 3.769 3.697s3.759-1.658 3.759-3.697z"></path>
</symbol>
</defs>
</svg>
