<svg aria-hidden="true" style="position: absolute; width: 0; height: 0; overflow: hidden;" version="1.1" xmlns="http://www.w3.org/2000/svg" xmlns:xlink="http://www.w3.org/1999/xlink">
<defs>
<symbol id="icon-ic-1" viewBox="0 0 32 32">
<path fill="none" stroke="#9dff3a" style="stroke: var(--color1, #9dff3a)" stroke-linejoin="round" stroke-linecap="round" stroke-miterlimit="4" stroke-width="1.6842" d="M5.895 10.947c2.383 0 3.571 0 4.312-0.741s0.741-1.937 0.741-4.312c0-2.383 0-3.579-0.741-4.312-0.741-0.741-1.928-0.741-4.312-0.741-2.392 0-3.579 0-4.32 0.741-0.733 0.733-0.733 1.928-0.733 4.312 0 2.375 0 3.571 0.733 4.312 0.741 0.741 1.928 0.741 4.32 0.741zM26.105 10.947c2.383 0 3.571 0 4.312-0.741s0.741-1.937 0.741-4.312c0-2.383 0-3.579-0.741-4.312-0.741-0.741-1.928-0.741-4.312-0.741-2.392 0-3.579 0-4.32 0.741-0.733 0.733-0.733 1.928-0.733 4.312 0 2.375 0 3.571 0.733 4.312 0.741 0.741 1.928 0.741 4.32 0.741zM26.105 31.158c2.375 0 3.571 0 4.312-0.741s0.741-1.937 0.741-4.312c0-2.383 0-3.579-0.741-4.312-0.741-0.741-1.928-0.741-4.312-0.741-2.392 0-3.579 0-4.32 0.741-0.733 0.733-0.733 1.928-0.733 4.312s0 3.571 0.733 4.312c0.741 0.741 1.937 0.741 4.32 0.741zM5.895 31.158c2.383 0 3.571 0 4.312-0.741s0.741-1.928 0.741-4.312c0-2.383 0-3.579-0.741-4.312-0.741-0.741-1.928-0.741-4.312-0.741-2.392 0-3.579 0-4.32 0.741-0.733 0.733-0.733 1.928-0.733 4.312s0 3.571 0.733 4.312c0.741 0.741 1.928 0.741 4.32 0.741zM16 5.895h-5.053M21.053 26.105h-5.053M26.105 16v-5.053M5.895 21.053v-5.053"></path>
</symbol>
<symbol id="icon-ic-2" viewBox="0 0 32 32">
<path fill="none" stroke="#9dff3a" style="stroke: var(--color1, #9dff3a)" stroke-linejoin="round" stroke-linecap="round" stroke-miterlimit="4" stroke-width="1.8286" d="M31.086 21.486v9.6h-9.6M30.208 30.208l-10.094-10.094M0.914 10.514v-9.6h9.6M1.783 1.783l10.103 10.103M21.486 0.914h9.6v9.6M30.208 1.783l-10.094 10.103M10.514 31.086h-9.6v-9.6M1.783 30.208l10.103-10.094"></path>
</symbol>
<symbol id="icon-ic-3" viewBox="0 0 33 32">
<path fill="none" stroke="#9dff3a" style="stroke: var(--color1, #9dff3a)" stroke-linejoin="round" stroke-linecap="round" stroke-miterlimit="4" stroke-width="1.0395" d="M5.821 5.787c0.548-0.631 1.15-1.213 1.795-1.746"></path>
<path fill="none" stroke="#9dff3a" style="stroke: var(--color1, #9dff3a)" stroke-linejoin="round" stroke-linecap="round" stroke-miterlimit="4" stroke-width="1.0395" d="M2.391 12.495c0.381-1.656 1.040-3.243 1.941-4.692"></path>
<path fill="none" stroke="#9dff3a" style="stroke: var(--color1, #9dff3a)" stroke-linejoin="round" stroke-linecap="round" stroke-miterlimit="4" stroke-width="1.0395" d="M7.519 27.874c-3.375-2.841-5.523-7.11-5.523-11.879 0-0.18 0.007-0.36 0.014-0.541"></path>
<path fill="none" stroke="#9dff3a" style="stroke: var(--color1, #9dff3a)" stroke-linejoin="round" stroke-linecap="round" stroke-miterlimit="4" stroke-width="1.0395" d="M24.866 29.544c-2.211 1.234-4.754 1.934-7.464 1.934-2.696 0-5.232-0.7-7.443-1.927"></path>
<path fill="none" stroke="#9dff3a" style="stroke: var(--color1, #9dff3a)" stroke-linejoin="round" stroke-linecap="round" stroke-miterlimit="4" stroke-width="1.0395" d="M30.466 7.79c1.483 2.377 2.342 5.191 2.342 8.206 0 4.761-2.141 9.023-5.51 11.865"></path>
<path fill="none" stroke="#9dff3a" style="stroke: var(--color1, #9dff3a)" stroke-linejoin="round" stroke-linecap="round" stroke-miterlimit="4" stroke-width="1.0395" d="M27.056 3.929c0.568 0.464 1.102 0.963 1.601 1.497"></path>
<path fill="none" stroke="#9dff3a" style="stroke: var(--color1, #9dff3a)" stroke-linejoin="round" stroke-linecap="round" stroke-miterlimit="4" stroke-width="1.0395" d="M10.056 2.384c2.183-1.192 4.685-1.864 7.346-1.864 2.592 0 5.031 0.638 7.18 1.774"></path>
<path fill="none" stroke="#9dff3a" style="stroke: var(--color1, #9dff3a)" stroke-linejoin="round" stroke-linecap="round" stroke-miterlimit="4" stroke-width="1.0395" d="M18.691 5.925c1.739-1.074 3.645-1.927 5.704-2.495"></path>
<path fill="none" stroke="#9dff3a" style="stroke: var(--color1, #9dff3a)" stroke-linejoin="round" stroke-linecap="round" stroke-miterlimit="4" stroke-width="1.0395" d="M12.378 11.899c1.116-1.587 2.433-3.008 3.923-4.248"></path>
<path fill="none" stroke="#9dff3a" style="stroke: var(--color1, #9dff3a)" stroke-linejoin="round" stroke-linecap="round" stroke-miterlimit="4" stroke-width="1.0395" d="M8.531 27.222c-0.554-4.532 0.319-8.954 2.301-12.773"></path>
<path fill="none" stroke="#9dff3a" style="stroke: var(--color1, #9dff3a)" stroke-linejoin="round" stroke-linecap="round" stroke-miterlimit="4" stroke-width="1.0395" d="M16.113 5.925c-1.795-1.116-3.777-1.982-5.912-2.55"></path>
<path fill="none" stroke="#9dff3a" style="stroke: var(--color1, #9dff3a)" stroke-linejoin="round" stroke-linecap="round" stroke-miterlimit="4" stroke-width="1.0395" d="M24.54 15.628c-1.372-3.077-3.43-5.815-6.036-7.977"></path>
<path fill="none" stroke="#9dff3a" style="stroke: var(--color1, #9dff3a)" stroke-linejoin="round" stroke-linecap="round" stroke-miterlimit="4" stroke-width="1.0395" d="M26.204 21.345c-0.146-0.991-0.36-1.968-0.638-2.932"></path>
<path fill="none" stroke="#9dff3a" style="stroke: var(--color1, #9dff3a)" stroke-linejoin="round" stroke-linecap="round" stroke-miterlimit="4" stroke-width="1.0395" d="M26.266 27.299c0.132-1.026 0.187-2.058 0.173-3.098"></path>
<path fill="none" stroke="#9dff3a" style="stroke: var(--color1, #9dff3a)" stroke-linejoin="round" stroke-linecap="round" stroke-miterlimit="4" stroke-width="1.0395" d="M10.16 12.863c-2.225-0.014-4.477 0.229-6.729 0.735"></path>
<path fill="none" stroke="#9dff3a" style="stroke: var(--color1, #9dff3a)" stroke-linejoin="round" stroke-linecap="round" stroke-miterlimit="4" stroke-width="1.0395" d="M23.82 16.272c-3.306-1.733-6.937-2.848-10.714-3.25"></path>
<path fill="none" stroke="#9dff3a" style="stroke: var(--color1, #9dff3a)" stroke-linejoin="round" stroke-linecap="round" stroke-miterlimit="4" stroke-width="1.0395" d="M31.561 22.101c-1.559-1.636-3.299-3.084-5.191-4.325"></path>
<path fill="none" stroke="#9dff3a" style="stroke: var(--color1, #9dff3a)" stroke-linejoin="round" stroke-linecap="round" stroke-miterlimit="4" stroke-width="1.0395" d="M25.85 15.711c1.476-2.377 2.613-4.948 3.375-7.637"></path>
<path fill="none" stroke="#9dff3a" style="stroke: var(--color1, #9dff3a)" stroke-linejoin="round" stroke-linecap="round" stroke-miterlimit="4" stroke-width="1.0395" d="M10.153 28.248c5.572-1.92 10.444-5.454 14.013-10.104"></path>
<path fill="none" stroke="#9dff3a" style="stroke: var(--color1, #9dff3a)" stroke-linejoin="round" stroke-linecap="butt" stroke-miterlimit="4" stroke-width="1.0395" d="M15.919 6.66c0-0.825 0.665-1.49 1.483-1.49s1.483 0.665 1.483 1.49c0 0.818-0.665 1.49-1.483 1.49s-1.483-0.672-1.483-1.49z"></path>
<path fill="none" stroke="#9dff3a" style="stroke: var(--color1, #9dff3a)" stroke-linejoin="round" stroke-linecap="butt" stroke-miterlimit="4" stroke-width="1.0395" d="M10.153 13.202c0-0.825 0.665-1.49 1.483-1.49s1.483 0.665 1.483 1.49c0 0.818-0.665 1.483-1.483 1.483s-1.483-0.665-1.483-1.483z"></path>
<path fill="none" stroke="#9dff3a" style="stroke: var(--color1, #9dff3a)" stroke-linejoin="round" stroke-linecap="butt" stroke-miterlimit="4" stroke-width="1.0395" d="M23.632 17c0-0.825 0.658-1.49 1.476-1.49s1.483 0.665 1.483 1.49c0 0.818-0.665 1.49-1.483 1.49s-1.476-0.672-1.476-1.49z"></path>
<path fill="none" stroke="#9dff3a" style="stroke: var(--color1, #9dff3a)" stroke-linejoin="round" stroke-linecap="butt" stroke-miterlimit="4" stroke-width="1.0395" d="M7.27 28.698c0-0.825 0.665-1.49 1.476-1.49 0.818 0 1.483 0.665 1.483 1.49 0 0.818-0.665 1.49-1.483 1.49-0.811 0-1.476-0.672-1.476-1.49z"></path>
<path fill="none" stroke="#9dff3a" style="stroke: var(--color1, #9dff3a)" stroke-linejoin="round" stroke-linecap="butt" stroke-miterlimit="4" stroke-width="1.0395" d="M24.658 28.782c0-0.818 0.665-1.49 1.483-1.49s1.483 0.672 1.483 1.49c0 0.818-0.665 1.49-1.483 1.49s-1.483-0.672-1.483-1.49z"></path>
<path fill="none" stroke="#9dff3a" style="stroke: var(--color1, #9dff3a)" stroke-linejoin="round" stroke-linecap="butt" stroke-miterlimit="4" stroke-width="1.0395" d="M28.116 6.584c0-0.825 0.658-1.49 1.476-1.49s1.483 0.665 1.483 1.49c0 0.818-0.665 1.49-1.483 1.49s-1.476-0.672-1.476-1.49z"></path>
<path fill="none" stroke="#9dff3a" style="stroke: var(--color1, #9dff3a)" stroke-linejoin="round" stroke-linecap="butt" stroke-miterlimit="4" stroke-width="1.0395" d="M24.353 3.084c0-0.818 0.665-1.483 1.483-1.483s1.476 0.665 1.476 1.483c0 0.825-0.658 1.49-1.476 1.49s-1.483-0.665-1.483-1.49z"></path>
<path fill="none" stroke="#9dff3a" style="stroke: var(--color1, #9dff3a)" stroke-linejoin="round" stroke-linecap="butt" stroke-miterlimit="4" stroke-width="1.0395" d="M7.27 3.084c0-0.818 0.665-1.483 1.476-1.483 0.818 0 1.483 0.665 1.483 1.483 0 0.825-0.665 1.49-1.483 1.49-0.811 0-1.476-0.665-1.476-1.49z"></path>
<path fill="none" stroke="#9dff3a" style="stroke: var(--color1, #9dff3a)" stroke-linejoin="round" stroke-linecap="butt" stroke-miterlimit="4" stroke-width="1.0395" d="M0.52 13.965c0-0.818 0.658-1.49 1.476-1.49s1.483 0.672 1.483 1.49c0 0.825-0.665 1.49-1.483 1.49s-1.476-0.665-1.476-1.49z"></path>
</symbol>
</defs>
</svg>
